<svg width="100" height="100" viewBox="0 0 100 100" fill="none" xmlns="http://www.w3.org/2000/svg">
<rect width="100" height="100" rx="10" fill="#FF3838" style="fill:#FF3838;fill:color(display-p3 1.0000 0.2196 0.2196);fill-opacity:1;"/>
<path d="M13.7268 68V31.28H22.0908V50.609L29.9193 41.99H39.6093L30.5058 52.496L40.4253 68H30.5313L24.4368 57.953L22.0908 60.452V68H13.7268ZM44.4563 68V31.28H52.8203V47.804L51.0863 45.7385C52.2083 44.3615 53.5428 43.265 55.0898 42.449C56.6368 41.633 58.3453 41.225 60.2153 41.225C62.6463 41.225 64.6693 41.7095 66.2843 42.6785C67.9163 43.6475 69.1318 44.914 69.9308 46.478C70.7298 48.042 71.1293 49.725 71.1293 51.527V68H62.7653V53.873C62.7653 52.377 62.3318 51.1615 61.4648 50.2265C60.5978 49.2915 59.3823 48.8155 57.8183 48.7985C56.7643 48.7815 55.8633 48.994 55.1153 49.436C54.3843 49.861 53.8148 50.4815 53.4068 51.2975C53.0158 52.0965 52.8203 53.0485 52.8203 54.1535V68H44.4563ZM81.7014 68.765C80.3074 68.765 79.0919 68.323 78.0549 67.439C77.0349 66.555 76.5249 65.3565 76.5249 63.8435C76.5249 62.8235 76.7544 61.948 77.2134 61.217C77.6894 60.486 78.3184 59.9165 79.1004 59.5085C79.8994 59.1005 80.7664 58.8965 81.7014 58.8965C83.1124 58.8965 84.3279 59.3385 85.3479 60.2225C86.3679 61.1065 86.8779 62.3135 86.8779 63.8435C86.8779 64.8635 86.6399 65.739 86.1639 66.47C85.6879 67.201 85.0589 67.762 84.2769 68.153C83.4949 68.561 82.6364 68.765 81.7014 68.765Z" fill="white" style="fill:white;fill:white;fill-opacity:1;"/>
</svg>
